# xmcd CD database file
#
# Track frame offsets:
#	150
#	3472
#	26082
#	44440
#	56820
#	78545
#	91780
#	106000
#	125890
#	141260
#	156010
#	173385
#	197297
#
# Disc length: 2673 seconds
#
# Revision: 0
# Processed by: cddbd v1.5.1PL0 Copyright (c) Steve Scherf et al.
# Submitted via: CDex 1.60beta1
#
DISCID=a00a6f0d
DTITLE=Various Artist - Celebrations Limited Edition [George Gershwin and Ira Gershwin]
DYEAR=1900
DGENRE=Jazz
TTITLE0=Various Artists/Rhapsody In Blue 
TTITLE1=Rick Riso/Embraceable You
TTITLE2=Della Miles/Love Is Here To Stay
TTITLE3=Charly Valentine and the Pat Longo Orchestra/Facinating Rhythm
TTITLE4=Patty Dorsey/The Man I Love
TTITLE5=Rick Riso/Somebody Loves Me
TTITLE6=Pat Longo Orchestra/'s Wonderful
TTITLE7=Nancy Engelken/Someone To Watch Over Me
TTITLE8=Della Miles/They Can't Take That Away From Me
TTITLE9=Pat Longo Orchestra/I Got Rhythm
TTITLE10=Terry Wood/I've Got A Crush On You
TTITLE11=J.P. Miles/Summertime
TTITLE12=Various Artists/Rhapsody In Blue (Reprise)
EXTD=
EXTT0=
EXTT1=
EXTT2=
EXTT3=
EXTT4=
EXTT5=
EXTT6=
EXTT7=
EXTT8=
EXTT9=
EXTT10=
EXTT11=
EXTT12=
PLAYORDER=
